<svg xmlns="http://www.w3.org/2000/svg" xmlns:xlink="http://www.w3.org/1999/xlink" width="13" height="16" viewBox="0 0 13 16"><defs><path id="oyrja" d="M859.302 65.17a1.078 1.078 0 0 1-.184.099l-.292.117-1.163.489c-.007-.006-.012-.013-.02-.019-.29.09-.634.14-1.01.14-1.204 0-4.35-.552-7.538-5.658-1.689-2.704-2.363-5.05-2.003-6.97.29-1.548 1.177-2.258 1.277-2.334l.023-.016 1.126-.768a1 1 0 0 1 .088-.056c.24-.13.508-.197.784-.197.565 0 1.085.27 1.359.703l2.01 3.136.018.03c.183.31.235.672.147 1.017-.09.35-.315.653-.636.853a1.032 1.032 0 0 1-.162.092l-.748.338c.482.912 1.894 3.142 2.521 3.983l.625-.46a.866.866 0 0 1 .125-.077c.232-.127.507-.197.786-.197.558 0 1.06.265 1.341.708l1.995 3.109a.81.81 0 0 1 .047.08c.372.659.151 1.451-.515 1.859zm-.485-1.384l-.013-.023-1.997-3.113a.429.429 0 0 0-.372-.197.453.453 0 0 0-.215.053l-1.13.83-.123.025a.722.722 0 0 1-.149.016c-.356 0-.548-.224-1.006-.865-.268-.375-.61-.886-.987-1.474-.666-1.039-1.43-2.305-1.636-2.79-.049-.115-.198-.466.105-.724l.061-.052 1.298-.592a.383.383 0 0 0 .134-.52l-.013-.023-1.996-3.112a.458.458 0 0 0-.388-.19.445.445 0 0 0-.195.043l-.002.001-1.117.763c-.078.063-.67.572-.879 1.721-.21 1.15-.055 3.169 1.873 6.257 2.895 4.637 5.555 5.138 6.564 5.138.298 0 .57-.044.746-.12l.012-.004 1.284-.525a.378.378 0 0 0 .141-.523z"/></defs><g><g transform="translate(-847 -50)"><use fill="#d53937" xlink:href="#oyrja"/></g></g></svg>